<?xml version="1.0" encoding="UTF-8" standalone="no"?>
<!DOCTYPE svg PUBLIC "-//W3C//DTD SVG 1.1//EN"
 "http://www.w3.org/Graphics/SVG/1.1/DTD/svg11.dtd">
<!-- Generated by graphviz version 5.0.0 (20220707.1540)
 -->
<!-- Title: UmlClassDiagram Pages: 1 -->
<svg width="1010pt" height="685pt"
 viewBox="0.00 0.00 1009.75 684.60" xmlns="http://www.w3.org/2000/svg" xmlns:xlink="http://www.w3.org/1999/xlink">
<g id="graph0" class="graph" transform="scale(1 1) rotate(0) translate(4 680.6)">
<title>UmlClassDiagram</title>
<polygon fill="white" stroke="transparent" points="-4,4 -4,-680.6 1005.75,-680.6 1005.75,4 -4,4"/>
<!-- 0 -->
<g id="node1" class="node">
<title>0</title>
<polygon fill="#f2f2f2" stroke="black" points="156.52,-367.9 156.52,-451.1 320.26,-451.1 320.26,-367.9 156.52,-367.9"/>
<text text-anchor="middle" x="238.39" y="-434.5" font-family="Times,serif" font-size="14.00">&lt;&lt;Interface&gt;&gt;</text>
<text text-anchor="middle" x="238.39" y="-417.7" font-family="Times,serif" font-size="14.00">INFT</text>
<polyline fill="none" stroke="black" points="156.52,-409.5 320.26,-409.5 "/>
<text text-anchor="start" x="164.52" y="-392.9" font-family="Times,serif" font-size="14.00">External:</text>
<text text-anchor="start" x="164.52" y="-376.1" font-family="Times,serif" font-size="14.00"> &#160;&#160;&#160;&#160;ownerOf(uint): address</text>
</g>
<!-- 1 -->
<g id="node2" class="node">
<title>1</title>
<polygon fill="#f2f2f2" stroke="black" points="0,-0.5 0,-242.9 476.78,-242.9 476.78,-0.5 0,-0.5"/>
<text text-anchor="middle" x="238.39" y="-226.3" font-family="Times,serif" font-size="14.00">&lt;&lt;Abstract&gt;&gt;</text>
<text text-anchor="middle" x="238.39" y="-209.5" font-family="Times,serif" font-size="14.00">Asset</text>
<polyline fill="none" stroke="black" points="0,-201.3 476.78,-201.3 "/>
<text text-anchor="start" x="8" y="-184.7" font-family="Times,serif" font-size="14.00">Private:</text>
<text text-anchor="start" x="8" y="-167.9" font-family="Times,serif" font-size="14.00"> &#160;&#160;_token: address</text>
<text text-anchor="start" x="8" y="-151.1" font-family="Times,serif" font-size="14.00"> &#160;&#160;_id: uint</text>
<polyline fill="none" stroke="black" points="0,-142.9 476.78,-142.9 "/>
<text text-anchor="start" x="8" y="-126.3" font-family="Times,serif" font-size="14.00">Internal:</text>
<text text-anchor="start" x="8" y="-109.5" font-family="Times,serif" font-size="14.00"> &#160;&#160;&#160;_checkOwner()</text>
<text text-anchor="start" x="8" y="-92.7" font-family="Times,serif" font-size="14.00">Public:</text>
<text text-anchor="start" x="8" y="-75.9" font-family="Times,serif" font-size="14.00"> &#160;&#160;&#160;&lt;&lt;event&gt;&gt; OwnershipTransferred(newOwner: address, token: address, id: uint)</text>
<text text-anchor="start" x="8" y="-59.1" font-family="Times,serif" font-size="14.00"> &#160;&#160;&#160;&lt;&lt;modifier&gt;&gt; onlyOwner()</text>
<text text-anchor="start" x="8" y="-42.3" font-family="Times,serif" font-size="14.00"> &#160;&#160;&#160;constructor(token: address, id: uint)</text>
<text text-anchor="start" x="8" y="-25.5" font-family="Times,serif" font-size="14.00"> &#160;&#160;&#160;owner(): address</text>
<text text-anchor="start" x="8" y="-8.7" font-family="Times,serif" font-size="14.00"> &#160;&#160;&#160;transferOwnership(token: address, id: uint) &lt;&lt;onlyOwner&gt;&gt;</text>
</g>
<!-- 1&#45;&gt;0 -->
<g id="edge1" class="edge">
<title>1&#45;&gt;0</title>
<path fill="none" stroke="black" stroke-dasharray="5,2" d="M238.39,-243.08C238.39,-283.1 238.39,-325.54 238.39,-357.41"/>
<polygon fill="black" stroke="black" points="234.89,-357.79 238.39,-367.79 241.89,-357.79 234.89,-357.79"/>
</g>
<!-- 2 -->
<g id="node3" class="node">
<title>2</title>
<polygon fill="#f2f2f2" stroke="black" points="669.43,-576.1 669.43,-676.1 827.35,-676.1 827.35,-576.1 669.43,-576.1"/>
<text text-anchor="middle" x="748.39" y="-659.5" font-family="Times,serif" font-size="14.00">&lt;&lt;Abstract&gt;&gt;</text>
<text text-anchor="middle" x="748.39" y="-642.7" font-family="Times,serif" font-size="14.00">Context</text>
<polyline fill="none" stroke="black" points="669.43,-634.5 827.35,-634.5 "/>
<text text-anchor="start" x="677.43" y="-617.9" font-family="Times,serif" font-size="14.00">Internal:</text>
<text text-anchor="start" x="677.43" y="-601.1" font-family="Times,serif" font-size="14.00"> &#160;&#160;&#160;_msgSender(): address</text>
<text text-anchor="start" x="677.43" y="-584.3" font-family="Times,serif" font-size="14.00"> &#160;&#160;&#160;_msgData(): bytes</text>
</g>
<!-- 3 -->
<g id="node4" class="node">
<title>3</title>
<polygon fill="#f2f2f2" stroke="black" points="505.93,-279.9 505.93,-539.1 990.86,-539.1 990.86,-279.9 505.93,-279.9"/>
<text text-anchor="middle" x="748.39" y="-522.5" font-family="Times,serif" font-size="14.00">&lt;&lt;Abstract&gt;&gt;</text>
<text text-anchor="middle" x="748.39" y="-505.7" font-family="Times,serif" font-size="14.00">Ownable</text>
<polyline fill="none" stroke="black" points="505.93,-497.5 990.86,-497.5 "/>
<text text-anchor="start" x="513.93" y="-480.9" font-family="Times,serif" font-size="14.00">Private:</text>
<text text-anchor="start" x="513.93" y="-464.1" font-family="Times,serif" font-size="14.00"> &#160;&#160;_owner: address</text>
<polyline fill="none" stroke="black" points="505.93,-455.9 990.86,-455.9 "/>
<text text-anchor="start" x="513.93" y="-439.3" font-family="Times,serif" font-size="14.00">Internal:</text>
<text text-anchor="start" x="513.93" y="-422.5" font-family="Times,serif" font-size="14.00"> &#160;&#160;&#160;_checkOwner()</text>
<text text-anchor="start" x="513.93" y="-405.7" font-family="Times,serif" font-size="14.00"> &#160;&#160;&#160;_transferOwnership(newOwner: address)</text>
<text text-anchor="start" x="513.93" y="-388.9" font-family="Times,serif" font-size="14.00">Public:</text>
<text text-anchor="start" x="513.93" y="-372.1" font-family="Times,serif" font-size="14.00"> &#160;&#160;&#160;&lt;&lt;event&gt;&gt; OwnershipTransferred(previousOwner: address, newOwner: address)</text>
<text text-anchor="start" x="513.93" y="-355.3" font-family="Times,serif" font-size="14.00"> &#160;&#160;&#160;&lt;&lt;modifier&gt;&gt; onlyOwner()</text>
<text text-anchor="start" x="513.93" y="-338.5" font-family="Times,serif" font-size="14.00"> &#160;&#160;&#160;constructor()</text>
<text text-anchor="start" x="513.93" y="-321.7" font-family="Times,serif" font-size="14.00"> &#160;&#160;&#160;owner(): address</text>
<text text-anchor="start" x="513.93" y="-304.9" font-family="Times,serif" font-size="14.00"> &#160;&#160;&#160;renounceOwnership() &lt;&lt;onlyOwner&gt;&gt;</text>
<text text-anchor="start" x="513.93" y="-288.1" font-family="Times,serif" font-size="14.00"> &#160;&#160;&#160;transferOwnership(newOwner: address) &lt;&lt;onlyOwner&gt;&gt;</text>
</g>
<!-- 3&#45;&gt;2 -->
<g id="edge2" class="edge">
<title>3&#45;&gt;2</title>
<path fill="none" stroke="black" d="M748.39,-539.36C748.39,-541.46 748.39,-543.55 748.39,-545.63"/>
<polygon fill="none" stroke="black" points="737.89,-545.76 748.39,-575.76 758.89,-545.76 737.89,-545.76"/>
</g>
<!-- 4 -->
<g id="node5" class="node">
<title>4</title>
<polygon fill="#f2f2f2" stroke="black" points="495.04,-8.9 495.04,-234.5 1001.75,-234.5 1001.75,-8.9 495.04,-8.9"/>
<text text-anchor="middle" x="748.39" y="-217.9" font-family="Times,serif" font-size="14.00">&lt;&lt;Abstract&gt;&gt;</text>
<text text-anchor="middle" x="748.39" y="-201.1" font-family="Times,serif" font-size="14.00">Ownable2Step</text>
<polyline fill="none" stroke="black" points="495.04,-192.9 1001.75,-192.9 "/>
<text text-anchor="start" x="503.04" y="-176.3" font-family="Times,serif" font-size="14.00">Private:</text>
<text text-anchor="start" x="503.04" y="-159.5" font-family="Times,serif" font-size="14.00"> &#160;&#160;_pendingOwner: address</text>
<polyline fill="none" stroke="black" points="495.04,-151.3 1001.75,-151.3 "/>
<text text-anchor="start" x="503.04" y="-134.7" font-family="Times,serif" font-size="14.00">Internal:</text>
<text text-anchor="start" x="503.04" y="-117.9" font-family="Times,serif" font-size="14.00"> &#160;&#160;&#160;_transferOwnership(newOwner: address)</text>
<text text-anchor="start" x="503.04" y="-101.1" font-family="Times,serif" font-size="14.00">External:</text>
<text text-anchor="start" x="503.04" y="-84.3" font-family="Times,serif" font-size="14.00"> &#160;&#160;&#160;acceptOwnership()</text>
<text text-anchor="start" x="503.04" y="-67.5" font-family="Times,serif" font-size="14.00">Public:</text>
<text text-anchor="start" x="503.04" y="-50.7" font-family="Times,serif" font-size="14.00"> &#160;&#160;&#160;&lt;&lt;event&gt;&gt; OwnershipTransferStarted(previousOwner: address, newOwner: address)</text>
<text text-anchor="start" x="503.04" y="-33.9" font-family="Times,serif" font-size="14.00"> &#160;&#160;&#160;pendingOwner(): address</text>
<text text-anchor="start" x="503.04" y="-17.1" font-family="Times,serif" font-size="14.00"> &#160;&#160;&#160;transferOwnership(newOwner: address) &lt;&lt;onlyOwner&gt;&gt;</text>
</g>
<!-- 4&#45;&gt;3 -->
<g id="edge3" class="edge">
<title>4&#45;&gt;3</title>
<path fill="none" stroke="black" d="M748.39,-234.84C748.39,-239.66 748.39,-244.53 748.39,-249.43"/>
<polygon fill="none" stroke="black" points="737.89,-249.64 748.39,-279.64 758.89,-249.64 737.89,-249.64"/>
</g>
</g>
</svg>
