<?xml version="1.0" encoding="UTF-8" standalone="no"?>
<!DOCTYPE svg PUBLIC "-//W3C//DTD SVG 1.1//EN"
 "http://www.w3.org/Graphics/SVG/1.1/DTD/svg11.dtd">
<!-- Generated by graphviz version 5.0.0 (20220707.1540)
 -->
<!-- Title: UmlClassDiagram Pages: 1 -->
<svg width="1651pt" height="880pt"
 viewBox="0.00 0.00 1650.80 880.00" xmlns="http://www.w3.org/2000/svg" xmlns:xlink="http://www.w3.org/1999/xlink">
<g id="graph0" class="graph" transform="scale(1 1) rotate(0) translate(4 876)">
<title>UmlClassDiagram</title>
<polygon fill="white" stroke="transparent" points="-4,4 -4,-876 1646.8,-876 1646.8,4 -4,4"/>
<!-- 0 -->
<g id="node1" class="node">
<title>0</title>
<polygon fill="#f2f2f2" stroke="black" points="6.36,-299.1 6.36,-335.1 70.57,-335.1 70.57,-299.1 6.36,-299.1"/>
<text text-anchor="middle" x="38.47" y="-313" font-family="Times,serif" font-size="14.00">Contract</text>
</g>
<!-- 9 -->
<g id="node10" class="node">
<title>9</title>
<polygon fill="#f2f2f2" stroke="black" points="0,-475.3 0,-734.5 484.93,-734.5 484.93,-475.3 0,-475.3"/>
<text text-anchor="middle" x="242.47" y="-717.9" font-family="Times,serif" font-size="14.00">&lt;&lt;Abstract&gt;&gt;</text>
<text text-anchor="middle" x="242.47" y="-701.1" font-family="Times,serif" font-size="14.00">Ownable</text>
<polyline fill="none" stroke="black" points="0,-692.9 484.93,-692.9 "/>
<text text-anchor="start" x="8" y="-676.3" font-family="Times,serif" font-size="14.00">Private:</text>
<text text-anchor="start" x="8" y="-659.5" font-family="Times,serif" font-size="14.00"> &#160;&#160;_owner: address</text>
<polyline fill="none" stroke="black" points="0,-651.3 484.93,-651.3 "/>
<text text-anchor="start" x="8" y="-634.7" font-family="Times,serif" font-size="14.00">Internal:</text>
<text text-anchor="start" x="8" y="-617.9" font-family="Times,serif" font-size="14.00"> &#160;&#160;&#160;_checkOwner()</text>
<text text-anchor="start" x="8" y="-601.1" font-family="Times,serif" font-size="14.00"> &#160;&#160;&#160;_transferOwnership(newOwner: address)</text>
<text text-anchor="start" x="8" y="-584.3" font-family="Times,serif" font-size="14.00">Public:</text>
<text text-anchor="start" x="8" y="-567.5" font-family="Times,serif" font-size="14.00"> &#160;&#160;&#160;&lt;&lt;event&gt;&gt; OwnershipTransferred(previousOwner: address, newOwner: address)</text>
<text text-anchor="start" x="8" y="-550.7" font-family="Times,serif" font-size="14.00"> &#160;&#160;&#160;&lt;&lt;modifier&gt;&gt; onlyOwner()</text>
<text text-anchor="start" x="8" y="-533.9" font-family="Times,serif" font-size="14.00"> &#160;&#160;&#160;constructor()</text>
<text text-anchor="start" x="8" y="-517.1" font-family="Times,serif" font-size="14.00"> &#160;&#160;&#160;owner(): address</text>
<text text-anchor="start" x="8" y="-500.3" font-family="Times,serif" font-size="14.00"> &#160;&#160;&#160;renounceOwnership() &lt;&lt;onlyOwner&gt;&gt;</text>
<text text-anchor="start" x="8" y="-483.5" font-family="Times,serif" font-size="14.00"> &#160;&#160;&#160;transferOwnership(newOwner: address) &lt;&lt;onlyOwner&gt;&gt;</text>
</g>
<!-- 0&#45;&gt;9 -->
<g id="edge1" class="edge">
<title>0&#45;&gt;9</title>
<path fill="none" stroke="black" d="M41.71,-335.14C46.9,-359.51 58.65,-405.09 79.47,-438.8 81.91,-442.75 84.46,-446.68 87.1,-450.59"/>
<polygon fill="none" stroke="black" points="78.86,-457.09 105.11,-475.01 95.76,-444.63 78.86,-457.09"/>
</g>
<!-- 1 -->
<g id="node2" class="node">
<title>1</title>
<polygon fill="#f2f2f2" stroke="black" points="517.81,-61.7 517.81,-97.7 599.12,-97.7 599.12,-61.7 517.81,-61.7"/>
<text text-anchor="middle" x="558.47" y="-75.6" font-family="Times,serif" font-size="14.00">ContractV2</text>
</g>
<!-- 10 -->
<g id="node11" class="node">
<title>10</title>
<polygon fill="#f2f2f2" stroke="black" points="415.11,-204.3 415.11,-429.9 921.82,-429.9 921.82,-204.3 415.11,-204.3"/>
<text text-anchor="middle" x="668.47" y="-413.3" font-family="Times,serif" font-size="14.00">&lt;&lt;Abstract&gt;&gt;</text>
<text text-anchor="middle" x="668.47" y="-396.5" font-family="Times,serif" font-size="14.00">Ownable2Step</text>
<polyline fill="none" stroke="black" points="415.11,-388.3 921.82,-388.3 "/>
<text text-anchor="start" x="423.11" y="-371.7" font-family="Times,serif" font-size="14.00">Private:</text>
<text text-anchor="start" x="423.11" y="-354.9" font-family="Times,serif" font-size="14.00"> &#160;&#160;_pendingOwner: address</text>
<polyline fill="none" stroke="black" points="415.11,-346.7 921.82,-346.7 "/>
<text text-anchor="start" x="423.11" y="-330.1" font-family="Times,serif" font-size="14.00">Internal:</text>
<text text-anchor="start" x="423.11" y="-313.3" font-family="Times,serif" font-size="14.00"> &#160;&#160;&#160;_transferOwnership(newOwner: address)</text>
<text text-anchor="start" x="423.11" y="-296.5" font-family="Times,serif" font-size="14.00">External:</text>
<text text-anchor="start" x="423.11" y="-279.7" font-family="Times,serif" font-size="14.00"> &#160;&#160;&#160;acceptOwnership()</text>
<text text-anchor="start" x="423.11" y="-262.9" font-family="Times,serif" font-size="14.00">Public:</text>
<text text-anchor="start" x="423.11" y="-246.1" font-family="Times,serif" font-size="14.00"> &#160;&#160;&#160;&lt;&lt;event&gt;&gt; OwnershipTransferStarted(previousOwner: address, newOwner: address)</text>
<text text-anchor="start" x="423.11" y="-229.3" font-family="Times,serif" font-size="14.00"> &#160;&#160;&#160;pendingOwner(): address</text>
<text text-anchor="start" x="423.11" y="-212.5" font-family="Times,serif" font-size="14.00"> &#160;&#160;&#160;transferOwnership(newOwner: address) &lt;&lt;onlyOwner&gt;&gt;</text>
</g>
<!-- 1&#45;&gt;10 -->
<g id="edge2" class="edge">
<title>1&#45;&gt;10</title>
<path fill="none" stroke="black" d="M566.55,-98.01C574.85,-115.75 588.58,-145.15 603.33,-176.71"/>
<polygon fill="none" stroke="black" points="593.93,-181.39 616.14,-204.13 612.95,-172.5 593.93,-181.39"/>
</g>
<!-- 2 -->
<g id="node3" class="node">
<title>2</title>
<polygon fill="#f2f2f2" stroke="black" points="1054.54,-46.5 1054.54,-112.9 1284.39,-112.9 1284.39,-46.5 1054.54,-46.5"/>
<text text-anchor="middle" x="1169.47" y="-96.3" font-family="Times,serif" font-size="14.00">ContractV3</text>
<polyline fill="none" stroke="black" points="1054.54,-88.1 1284.39,-88.1 "/>
<text text-anchor="start" x="1062.54" y="-71.5" font-family="Times,serif" font-size="14.00">Public:</text>
<text text-anchor="start" x="1062.54" y="-54.7" font-family="Times,serif" font-size="14.00"> &#160;&#160;&#160;constructor(token: address, id: uint)</text>
</g>
<!-- 7 -->
<g id="node8" class="node">
<title>7</title>
<polygon fill="#f2f2f2" stroke="black" points="1035.07,-195.9 1035.07,-438.3 1511.86,-438.3 1511.86,-195.9 1035.07,-195.9"/>
<text text-anchor="middle" x="1273.47" y="-421.7" font-family="Times,serif" font-size="14.00">&lt;&lt;Abstract&gt;&gt;</text>
<text text-anchor="middle" x="1273.47" y="-404.9" font-family="Times,serif" font-size="14.00">Asset</text>
<polyline fill="none" stroke="black" points="1035.07,-396.7 1511.86,-396.7 "/>
<text text-anchor="start" x="1043.07" y="-380.1" font-family="Times,serif" font-size="14.00">Private:</text>
<text text-anchor="start" x="1043.07" y="-363.3" font-family="Times,serif" font-size="14.00"> &#160;&#160;_token: address</text>
<text text-anchor="start" x="1043.07" y="-346.5" font-family="Times,serif" font-size="14.00"> &#160;&#160;_id: uint</text>
<polyline fill="none" stroke="black" points="1035.07,-338.3 1511.86,-338.3 "/>
<text text-anchor="start" x="1043.07" y="-321.7" font-family="Times,serif" font-size="14.00">Internal:</text>
<text text-anchor="start" x="1043.07" y="-304.9" font-family="Times,serif" font-size="14.00"> &#160;&#160;&#160;_checkOwner()</text>
<text text-anchor="start" x="1043.07" y="-288.1" font-family="Times,serif" font-size="14.00">Public:</text>
<text text-anchor="start" x="1043.07" y="-271.3" font-family="Times,serif" font-size="14.00"> &#160;&#160;&#160;&lt;&lt;event&gt;&gt; OwnershipTransferred(newOwner: address, token: address, id: uint)</text>
<text text-anchor="start" x="1043.07" y="-254.5" font-family="Times,serif" font-size="14.00"> &#160;&#160;&#160;&lt;&lt;modifier&gt;&gt; onlyOwner()</text>
<text text-anchor="start" x="1043.07" y="-237.7" font-family="Times,serif" font-size="14.00"> &#160;&#160;&#160;constructor(token: address, id: uint)</text>
<text text-anchor="start" x="1043.07" y="-220.9" font-family="Times,serif" font-size="14.00"> &#160;&#160;&#160;owner(): address</text>
<text text-anchor="start" x="1043.07" y="-204.1" font-family="Times,serif" font-size="14.00"> &#160;&#160;&#160;transferOwnership(token: address, id: uint) &lt;&lt;onlyOwner&gt;&gt;</text>
</g>
<!-- 2&#45;&gt;7 -->
<g id="edge3" class="edge">
<title>2&#45;&gt;7</title>
<path fill="none" stroke="black" d="M1183.71,-112.94C1190.42,-128.13 1198.95,-147.44 1208.07,-168.09"/>
<polygon fill="none" stroke="black" points="1198.57,-172.56 1220.3,-195.76 1217.78,-164.08 1198.57,-172.56"/>
</g>
<!-- 3 -->
<g id="node4" class="node">
<title>3</title>
<polygon fill="#f2f2f2" stroke="black" points="88.23,-237.9 88.23,-396.3 396.7,-396.3 396.7,-237.9 88.23,-237.9"/>
<text text-anchor="middle" x="242.47" y="-379.7" font-family="Times,serif" font-size="14.00">Lock</text>
<polyline fill="none" stroke="black" points="88.23,-371.5 396.7,-371.5 "/>
<text text-anchor="start" x="96.23" y="-354.9" font-family="Times,serif" font-size="14.00">Public:</text>
<text text-anchor="start" x="96.23" y="-338.1" font-family="Times,serif" font-size="14.00"> &#160;&#160;unlockTime: uint</text>
<polyline fill="none" stroke="black" points="88.23,-329.9 396.7,-329.9 "/>
<text text-anchor="start" x="96.23" y="-313.3" font-family="Times,serif" font-size="14.00">Public:</text>
<text text-anchor="start" x="96.23" y="-296.5" font-family="Times,serif" font-size="14.00"> &#160;&#160;&#160;&lt;&lt;event&gt;&gt; Withdrawal(amount: uint, when: uint)</text>
<text text-anchor="start" x="96.23" y="-279.7" font-family="Times,serif" font-size="14.00"> &#160;&#160;&#160;constructor(_unlockTime: uint)</text>
<text text-anchor="start" x="96.23" y="-262.9" font-family="Times,serif" font-size="14.00"> &#160;&#160;&#160;withdraw() &lt;&lt;onlyOwner&gt;&gt;</text>
<text text-anchor="start" x="96.23" y="-246.1" font-family="Times,serif" font-size="14.00"> &#160;&#160;&#160;getBalance(): uint</text>
</g>
<!-- 3&#45;&gt;9 -->
<g id="edge4" class="edge">
<title>3&#45;&gt;9</title>
<path fill="none" stroke="black" d="M242.47,-396.57C242.47,-411.76 242.47,-428.17 242.47,-444.87"/>
<polygon fill="none" stroke="black" points="231.97,-445.07 242.47,-475.07 252.97,-445.07 231.97,-445.07"/>
</g>
<!-- 4 -->
<g id="node5" class="node">
<title>4</title>
<polygon fill="#f2f2f2" stroke="black" points="617.23,-0.5 617.23,-158.9 925.7,-158.9 925.7,-0.5 617.23,-0.5"/>
<text text-anchor="middle" x="771.47" y="-142.3" font-family="Times,serif" font-size="14.00">LockV2</text>
<polyline fill="none" stroke="black" points="617.23,-134.1 925.7,-134.1 "/>
<text text-anchor="start" x="625.23" y="-117.5" font-family="Times,serif" font-size="14.00">Public:</text>
<text text-anchor="start" x="625.23" y="-100.7" font-family="Times,serif" font-size="14.00"> &#160;&#160;unlockTime: uint</text>
<polyline fill="none" stroke="black" points="617.23,-92.5 925.7,-92.5 "/>
<text text-anchor="start" x="625.23" y="-75.9" font-family="Times,serif" font-size="14.00">Public:</text>
<text text-anchor="start" x="625.23" y="-59.1" font-family="Times,serif" font-size="14.00"> &#160;&#160;&#160;&lt;&lt;event&gt;&gt; Withdrawal(amount: uint, when: uint)</text>
<text text-anchor="start" x="625.23" y="-42.3" font-family="Times,serif" font-size="14.00"> &#160;&#160;&#160;constructor(_unlockTime: uint)</text>
<text text-anchor="start" x="625.23" y="-25.5" font-family="Times,serif" font-size="14.00"> &#160;&#160;&#160;withdraw() &lt;&lt;onlyOwner&gt;&gt;</text>
<text text-anchor="start" x="625.23" y="-8.7" font-family="Times,serif" font-size="14.00"> &#160;&#160;&#160;getBalance(): uint</text>
</g>
<!-- 4&#45;&gt;10 -->
<g id="edge5" class="edge">
<title>4&#45;&gt;10</title>
<path fill="none" stroke="black" d="M737.17,-159.08C734.7,-164.73 732.17,-170.51 729.61,-176.36"/>
<polygon fill="none" stroke="black" points="719.89,-172.38 717.48,-204.08 739.13,-180.8 719.89,-172.38"/>
</g>
<!-- 5 -->
<g id="node6" class="node">
<title>5</title>
<polygon fill="#f2f2f2" stroke="black" points="1302.14,-0.5 1302.14,-158.9 1642.8,-158.9 1642.8,-0.5 1302.14,-0.5"/>
<text text-anchor="middle" x="1472.47" y="-142.3" font-family="Times,serif" font-size="14.00">LockV3</text>
<polyline fill="none" stroke="black" points="1302.14,-134.1 1642.8,-134.1 "/>
<text text-anchor="start" x="1310.14" y="-117.5" font-family="Times,serif" font-size="14.00">Public:</text>
<text text-anchor="start" x="1310.14" y="-100.7" font-family="Times,serif" font-size="14.00"> &#160;&#160;unlockTime: uint</text>
<polyline fill="none" stroke="black" points="1302.14,-92.5 1642.8,-92.5 "/>
<text text-anchor="start" x="1310.14" y="-75.9" font-family="Times,serif" font-size="14.00">Public:</text>
<text text-anchor="start" x="1310.14" y="-59.1" font-family="Times,serif" font-size="14.00"> &#160;&#160;&#160;&lt;&lt;event&gt;&gt; Withdrawal(amount: uint, when: uint)</text>
<text text-anchor="start" x="1310.14" y="-42.3" font-family="Times,serif" font-size="14.00"> &#160;&#160;&#160;constructor(_unlockTime: uint, token: address, id: uint)</text>
<text text-anchor="start" x="1310.14" y="-25.5" font-family="Times,serif" font-size="14.00"> &#160;&#160;&#160;withdraw() &lt;&lt;onlyOwner&gt;&gt;</text>
<text text-anchor="start" x="1310.14" y="-8.7" font-family="Times,serif" font-size="14.00"> &#160;&#160;&#160;getBalance(): uint</text>
</g>
<!-- 5&#45;&gt;7 -->
<g id="edge6" class="edge">
<title>5&#45;&gt;7</title>
<path fill="none" stroke="black" d="M1406.2,-159.08C1402.47,-163.5 1398.67,-168 1394.82,-172.55"/>
<polygon fill="none" stroke="black" points="1386.67,-165.93 1375.32,-195.62 1402.7,-179.49 1386.67,-165.93"/>
</g>
<!-- 6 -->
<g id="node7" class="node">
<title>6</title>
<polygon fill="#f2f2f2" stroke="black" points="1191.6,-563.3 1191.6,-646.5 1355.33,-646.5 1355.33,-563.3 1191.6,-563.3"/>
<text text-anchor="middle" x="1273.47" y="-629.9" font-family="Times,serif" font-size="14.00">&lt;&lt;Interface&gt;&gt;</text>
<text text-anchor="middle" x="1273.47" y="-613.1" font-family="Times,serif" font-size="14.00">INFT</text>
<polyline fill="none" stroke="black" points="1191.6,-604.9 1355.33,-604.9 "/>
<text text-anchor="start" x="1199.6" y="-588.3" font-family="Times,serif" font-size="14.00">External:</text>
<text text-anchor="start" x="1199.6" y="-571.5" font-family="Times,serif" font-size="14.00"> &#160;&#160;&#160;&#160;ownerOf(uint): address</text>
</g>
<!-- 7&#45;&gt;6 -->
<g id="edge7" class="edge">
<title>7&#45;&gt;6</title>
<path fill="none" stroke="black" stroke-dasharray="5,2" d="M1273.47,-438.48C1273.47,-478.5 1273.47,-520.94 1273.47,-552.81"/>
<polygon fill="black" stroke="black" points="1269.97,-553.19 1273.47,-563.19 1276.97,-553.19 1269.97,-553.19"/>
</g>
<!-- 8 -->
<g id="node9" class="node">
<title>8</title>
<polygon fill="#f2f2f2" stroke="black" points="163.51,-771.5 163.51,-871.5 321.42,-871.5 321.42,-771.5 163.51,-771.5"/>
<text text-anchor="middle" x="242.47" y="-854.9" font-family="Times,serif" font-size="14.00">&lt;&lt;Abstract&gt;&gt;</text>
<text text-anchor="middle" x="242.47" y="-838.1" font-family="Times,serif" font-size="14.00">Context</text>
<polyline fill="none" stroke="black" points="163.51,-829.9 321.42,-829.9 "/>
<text text-anchor="start" x="171.51" y="-813.3" font-family="Times,serif" font-size="14.00">Internal:</text>
<text text-anchor="start" x="171.51" y="-796.5" font-family="Times,serif" font-size="14.00"> &#160;&#160;&#160;_msgSender(): address</text>
<text text-anchor="start" x="171.51" y="-779.7" font-family="Times,serif" font-size="14.00"> &#160;&#160;&#160;_msgData(): bytes</text>
</g>
<!-- 9&#45;&gt;8 -->
<g id="edge8" class="edge">
<title>9&#45;&gt;8</title>
<path fill="none" stroke="black" d="M242.47,-734.76C242.47,-736.86 242.47,-738.95 242.47,-741.03"/>
<polygon fill="none" stroke="black" points="231.97,-741.16 242.47,-771.16 252.97,-741.16 231.97,-741.16"/>
</g>
<!-- 10&#45;&gt;9 -->
<g id="edge9" class="edge">
<title>10&#45;&gt;9</title>
<path fill="none" stroke="black" d="M501.63,-430.03C487.77,-439.33 473.63,-448.81 459.47,-458.31"/>
<polygon fill="none" stroke="black" points="453.5,-449.68 434.44,-475.11 465.2,-467.11 453.5,-449.68"/>
</g>
</g>
</svg>
