<?xml version="1.0" encoding="UTF-8" standalone="no"?>
<!DOCTYPE svg PUBLIC "-//W3C//DTD SVG 1.1//EN"
 "http://www.w3.org/Graphics/SVG/1.1/DTD/svg11.dtd">
<!-- Generated by graphviz version 5.0.0 (20220707.1540)
 -->
<!-- Title: UmlClassDiagram Pages: 1 -->
<svg width="1744pt" height="1132pt"
 viewBox="0.00 0.00 1743.61 1132.00" xmlns="http://www.w3.org/2000/svg" xmlns:xlink="http://www.w3.org/1999/xlink">
<g id="graph0" class="graph" transform="scale(1 1) rotate(0) translate(4 1128)">
<title>UmlClassDiagram</title>
<polygon fill="white" stroke="transparent" points="-4,4 -4,-1128 1739.61,-1128 1739.61,4 -4,4"/>
<!-- 0 -->
<g id="node1" class="node">
<title>0</title>
<polygon fill="#f2f2f2" stroke="black" points="0,-481.1 0,-522.7 162.57,-522.7 162.57,-481.1 0,-481.1"/>
<text text-anchor="middle" x="81.28" y="-506.1" font-family="Times,serif" font-size="14.00">Contract</text>
<text text-anchor="middle" x="81.28" y="-489.3" font-family="Times,serif" font-size="14.00">contractsmainContract.sol</text>
</g>
<!-- 9 -->
<g id="node10" class="node">
<title>9</title>
<polygon fill="#f2f2f2" stroke="black" points="92.82,-693.7 92.82,-969.7 577.75,-969.7 577.75,-693.7 92.82,-693.7"/>
<text text-anchor="middle" x="335.28" y="-953.1" font-family="Times,serif" font-size="14.00">&lt;&lt;Abstract&gt;&gt;</text>
<text text-anchor="middle" x="335.28" y="-936.3" font-family="Times,serif" font-size="14.00">Ownable</text>
<text text-anchor="middle" x="335.28" y="-919.5" font-family="Times,serif" font-size="14.00">contractsmainabstractsOwnable.sol</text>
<polyline fill="none" stroke="black" points="92.82,-911.3 577.75,-911.3 "/>
<text text-anchor="start" x="100.82" y="-894.7" font-family="Times,serif" font-size="14.00">Private:</text>
<text text-anchor="start" x="100.82" y="-877.9" font-family="Times,serif" font-size="14.00"> &#160;&#160;_owner: address</text>
<polyline fill="none" stroke="black" points="92.82,-869.7 577.75,-869.7 "/>
<text text-anchor="start" x="100.82" y="-853.1" font-family="Times,serif" font-size="14.00">Internal:</text>
<text text-anchor="start" x="100.82" y="-836.3" font-family="Times,serif" font-size="14.00"> &#160;&#160;&#160;_checkOwner()</text>
<text text-anchor="start" x="100.82" y="-819.5" font-family="Times,serif" font-size="14.00"> &#160;&#160;&#160;_transferOwnership(newOwner: address)</text>
<text text-anchor="start" x="100.82" y="-802.7" font-family="Times,serif" font-size="14.00">Public:</text>
<text text-anchor="start" x="100.82" y="-785.9" font-family="Times,serif" font-size="14.00"> &#160;&#160;&#160;&lt;&lt;event&gt;&gt; OwnershipTransferred(previousOwner: address, newOwner: address)</text>
<text text-anchor="start" x="100.82" y="-769.1" font-family="Times,serif" font-size="14.00"> &#160;&#160;&#160;&lt;&lt;modifier&gt;&gt; onlyOwner()</text>
<text text-anchor="start" x="100.82" y="-752.3" font-family="Times,serif" font-size="14.00"> &#160;&#160;&#160;constructor()</text>
<text text-anchor="start" x="100.82" y="-735.5" font-family="Times,serif" font-size="14.00"> &#160;&#160;&#160;owner(): address</text>
<text text-anchor="start" x="100.82" y="-718.7" font-family="Times,serif" font-size="14.00"> &#160;&#160;&#160;renounceOwnership() &lt;&lt;onlyOwner&gt;&gt;</text>
<text text-anchor="start" x="100.82" y="-701.9" font-family="Times,serif" font-size="14.00"> &#160;&#160;&#160;transferOwnership(newOwner: address) &lt;&lt;onlyOwner&gt;&gt;</text>
</g>
<!-- 0&#45;&gt;9 -->
<g id="edge1" class="edge">
<title>0&#45;&gt;9</title>
<path fill="none" stroke="black" d="M91.19,-522.77C106.66,-553.03 138.32,-611.92 172.28,-657.2 175.47,-661.44 178.74,-665.7 182.09,-669.95"/>
<polygon fill="none" stroke="black" points="174.13,-676.81 201.24,-693.39 190.39,-663.52 174.13,-676.81"/>
</g>
<!-- 1 -->
<g id="node2" class="node">
<title>1</title>
<polygon fill="#f2f2f2" stroke="black" points="529,-134.5 529,-176.1 691.57,-176.1 691.57,-134.5 529,-134.5"/>
<text text-anchor="middle" x="610.28" y="-159.5" font-family="Times,serif" font-size="14.00">ContractV2</text>
<text text-anchor="middle" x="610.28" y="-142.7" font-family="Times,serif" font-size="14.00">contractsmainContract.sol</text>
</g>
<!-- 10 -->
<g id="node11" class="node">
<title>10</title>
<polygon fill="#f2f2f2" stroke="black" points="507.93,-380.7 507.93,-623.1 1014.64,-623.1 1014.64,-380.7 507.93,-380.7"/>
<text text-anchor="middle" x="761.28" y="-606.5" font-family="Times,serif" font-size="14.00">&lt;&lt;Abstract&gt;&gt;</text>
<text text-anchor="middle" x="761.28" y="-589.7" font-family="Times,serif" font-size="14.00">Ownable2Step</text>
<text text-anchor="middle" x="761.28" y="-572.9" font-family="Times,serif" font-size="14.00">contractsmainabstractsOwnable2Step.sol</text>
<polyline fill="none" stroke="black" points="507.93,-564.7 1014.64,-564.7 "/>
<text text-anchor="start" x="515.93" y="-548.1" font-family="Times,serif" font-size="14.00">Private:</text>
<text text-anchor="start" x="515.93" y="-531.3" font-family="Times,serif" font-size="14.00"> &#160;&#160;_pendingOwner: address</text>
<polyline fill="none" stroke="black" points="507.93,-523.1 1014.64,-523.1 "/>
<text text-anchor="start" x="515.93" y="-506.5" font-family="Times,serif" font-size="14.00">Internal:</text>
<text text-anchor="start" x="515.93" y="-489.7" font-family="Times,serif" font-size="14.00"> &#160;&#160;&#160;_transferOwnership(newOwner: address)</text>
<text text-anchor="start" x="515.93" y="-472.9" font-family="Times,serif" font-size="14.00">External:</text>
<text text-anchor="start" x="515.93" y="-456.1" font-family="Times,serif" font-size="14.00"> &#160;&#160;&#160;acceptOwnership()</text>
<text text-anchor="start" x="515.93" y="-439.3" font-family="Times,serif" font-size="14.00">Public:</text>
<text text-anchor="start" x="515.93" y="-422.5" font-family="Times,serif" font-size="14.00"> &#160;&#160;&#160;&lt;&lt;event&gt;&gt; OwnershipTransferStarted(previousOwner: address, newOwner: address)</text>
<text text-anchor="start" x="515.93" y="-405.7" font-family="Times,serif" font-size="14.00"> &#160;&#160;&#160;pendingOwner(): address</text>
<text text-anchor="start" x="515.93" y="-388.9" font-family="Times,serif" font-size="14.00"> &#160;&#160;&#160;transferOwnership(newOwner: address) &lt;&lt;onlyOwner&gt;&gt;</text>
</g>
<!-- 1&#45;&gt;10 -->
<g id="edge2" class="edge">
<title>1&#45;&gt;10</title>
<path fill="none" stroke="black" d="M619.06,-176.32C634.16,-210.78 666.34,-284.23 696.28,-352.55"/>
<polygon fill="none" stroke="black" points="686.82,-357.12 708.48,-380.39 706.05,-348.69 686.82,-357.12"/>
</g>
<!-- 2 -->
<g id="node3" class="node">
<title>2</title>
<polygon fill="#f2f2f2" stroke="black" points="1147.36,-113.7 1147.36,-196.9 1377.21,-196.9 1377.21,-113.7 1147.36,-113.7"/>
<text text-anchor="middle" x="1262.28" y="-180.3" font-family="Times,serif" font-size="14.00">ContractV3</text>
<text text-anchor="middle" x="1262.28" y="-163.5" font-family="Times,serif" font-size="14.00">contractsmainContract.sol</text>
<polyline fill="none" stroke="black" points="1147.36,-155.3 1377.21,-155.3 "/>
<text text-anchor="start" x="1155.36" y="-138.7" font-family="Times,serif" font-size="14.00">Public:</text>
<text text-anchor="start" x="1155.36" y="-121.9" font-family="Times,serif" font-size="14.00"> &#160;&#160;&#160;constructor(token: address, id: uint)</text>
</g>
<!-- 7 -->
<g id="node8" class="node">
<title>7</title>
<polygon fill="#f2f2f2" stroke="black" points="1127.89,-372.3 1127.89,-631.5 1604.68,-631.5 1604.68,-372.3 1127.89,-372.3"/>
<text text-anchor="middle" x="1366.28" y="-614.9" font-family="Times,serif" font-size="14.00">&lt;&lt;Abstract&gt;&gt;</text>
<text text-anchor="middle" x="1366.28" y="-598.1" font-family="Times,serif" font-size="14.00">Asset</text>
<text text-anchor="middle" x="1366.28" y="-581.3" font-family="Times,serif" font-size="14.00">contractsmainabstractsAsset.sol</text>
<polyline fill="none" stroke="black" points="1127.89,-573.1 1604.68,-573.1 "/>
<text text-anchor="start" x="1135.89" y="-556.5" font-family="Times,serif" font-size="14.00">Private:</text>
<text text-anchor="start" x="1135.89" y="-539.7" font-family="Times,serif" font-size="14.00"> &#160;&#160;_token: address</text>
<text text-anchor="start" x="1135.89" y="-522.9" font-family="Times,serif" font-size="14.00"> &#160;&#160;_id: uint</text>
<polyline fill="none" stroke="black" points="1127.89,-514.7 1604.68,-514.7 "/>
<text text-anchor="start" x="1135.89" y="-498.1" font-family="Times,serif" font-size="14.00">Internal:</text>
<text text-anchor="start" x="1135.89" y="-481.3" font-family="Times,serif" font-size="14.00"> &#160;&#160;&#160;_checkOwner()</text>
<text text-anchor="start" x="1135.89" y="-464.5" font-family="Times,serif" font-size="14.00">Public:</text>
<text text-anchor="start" x="1135.89" y="-447.7" font-family="Times,serif" font-size="14.00"> &#160;&#160;&#160;&lt;&lt;event&gt;&gt; OwnershipTransferred(newOwner: address, token: address, id: uint)</text>
<text text-anchor="start" x="1135.89" y="-430.9" font-family="Times,serif" font-size="14.00"> &#160;&#160;&#160;&lt;&lt;modifier&gt;&gt; onlyOwner()</text>
<text text-anchor="start" x="1135.89" y="-414.1" font-family="Times,serif" font-size="14.00"> &#160;&#160;&#160;constructor(token: address, id: uint)</text>
<text text-anchor="start" x="1135.89" y="-397.3" font-family="Times,serif" font-size="14.00"> &#160;&#160;&#160;owner(): address</text>
<text text-anchor="start" x="1135.89" y="-380.5" font-family="Times,serif" font-size="14.00"> &#160;&#160;&#160;transferOwnership(token: address, id: uint) &lt;&lt;onlyOwner&gt;&gt;</text>
</g>
<!-- 2&#45;&gt;7 -->
<g id="edge3" class="edge">
<title>2&#45;&gt;7</title>
<path fill="none" stroke="black" d="M1274.62,-197.18C1285.64,-233.68 1302.5,-289.54 1318.77,-343.45"/>
<polygon fill="none" stroke="black" points="1308.73,-346.52 1327.45,-372.21 1328.83,-340.45 1308.73,-346.52"/>
</g>
<!-- 3 -->
<g id="node4" class="node">
<title>3</title>
<polygon fill="#f2f2f2" stroke="black" points="181.05,-347.1 181.05,-656.7 489.52,-656.7 489.52,-347.1 181.05,-347.1"/>
<text text-anchor="middle" x="335.28" y="-640.1" font-family="Times,serif" font-size="14.00">Lock</text>
<text text-anchor="middle" x="335.28" y="-623.3" font-family="Times,serif" font-size="14.00">contractsmain{Lock</text>
<text text-anchor="start" x="189.05" y="-606.5" font-family="Times,serif" font-size="14.00">contractsmainLock.sol| Public:</text>
<text text-anchor="start" x="189.05" y="-589.7" font-family="Times,serif" font-size="14.00"> &#160;&#160;unlockTime: uint</text>
<text text-anchor="start" x="189.05" y="-572.9" font-family="Times,serif" font-size="14.00">| Public:</text>
<text text-anchor="start" x="189.05" y="-556.1" font-family="Times,serif" font-size="14.00"> &#160;&#160;&#160;&lt;&lt;event&gt;&gt; Withdrawal(amount: uint, when: uint)</text>
<text text-anchor="start" x="189.05" y="-539.3" font-family="Times,serif" font-size="14.00"> &#160;&#160;&#160;constructor(_unlockTime: uint)</text>
<text text-anchor="start" x="189.05" y="-522.5" font-family="Times,serif" font-size="14.00"> &#160;&#160;&#160;withdraw() &lt;&lt;onlyOwner&gt;&gt;</text>
<text text-anchor="start" x="189.05" y="-505.7" font-family="Times,serif" font-size="14.00"> &#160;&#160;&#160;getBalance(): uint</text>
<text text-anchor="middle" x="335.28" y="-488.9" font-family="Times,serif" font-size="14.00">}ock.sol</text>
<polyline fill="none" stroke="black" points="181.05,-480.7 489.52,-480.7 "/>
<text text-anchor="start" x="189.05" y="-464.1" font-family="Times,serif" font-size="14.00">Public:</text>
<text text-anchor="start" x="189.05" y="-447.3" font-family="Times,serif" font-size="14.00"> &#160;&#160;unlockTime: uint</text>
<polyline fill="none" stroke="black" points="181.05,-439.1 489.52,-439.1 "/>
<text text-anchor="start" x="189.05" y="-422.5" font-family="Times,serif" font-size="14.00">Public:</text>
<text text-anchor="start" x="189.05" y="-405.7" font-family="Times,serif" font-size="14.00"> &#160;&#160;&#160;&lt;&lt;event&gt;&gt; Withdrawal(amount: uint, when: uint)</text>
<text text-anchor="start" x="189.05" y="-388.9" font-family="Times,serif" font-size="14.00"> &#160;&#160;&#160;constructor(_unlockTime: uint)</text>
<text text-anchor="start" x="189.05" y="-372.1" font-family="Times,serif" font-size="14.00"> &#160;&#160;&#160;withdraw() &lt;&lt;onlyOwner&gt;&gt;</text>
<text text-anchor="start" x="189.05" y="-355.3" font-family="Times,serif" font-size="14.00"> &#160;&#160;&#160;getBalance(): uint</text>
</g>
<!-- 3&#45;&gt;9 -->
<g id="edge4" class="edge">
<title>3&#45;&gt;9</title>
<path fill="none" stroke="black" d="M335.28,-656.72C335.28,-658.93 335.28,-661.15 335.28,-663.36"/>
<polygon fill="none" stroke="black" points="324.78,-663.6 335.28,-693.6 345.78,-663.6 324.78,-663.6"/>
</g>
<!-- 4 -->
<g id="node5" class="node">
<title>4</title>
<polygon fill="#f2f2f2" stroke="black" points="710.05,-0.5 710.05,-310.1 1018.52,-310.1 1018.52,-0.5 710.05,-0.5"/>
<text text-anchor="middle" x="864.28" y="-293.5" font-family="Times,serif" font-size="14.00">LockV2</text>
<text text-anchor="middle" x="864.28" y="-276.7" font-family="Times,serif" font-size="14.00">contractsmain{LockV2</text>
<text text-anchor="start" x="718.05" y="-259.9" font-family="Times,serif" font-size="14.00">contractsmainLock.sol| Public:</text>
<text text-anchor="start" x="718.05" y="-243.1" font-family="Times,serif" font-size="14.00"> &#160;&#160;unlockTime: uint</text>
<text text-anchor="start" x="718.05" y="-226.3" font-family="Times,serif" font-size="14.00">| Public:</text>
<text text-anchor="start" x="718.05" y="-209.5" font-family="Times,serif" font-size="14.00"> &#160;&#160;&#160;&lt;&lt;event&gt;&gt; Withdrawal(amount: uint, when: uint)</text>
<text text-anchor="start" x="718.05" y="-192.7" font-family="Times,serif" font-size="14.00"> &#160;&#160;&#160;constructor(_unlockTime: uint)</text>
<text text-anchor="start" x="718.05" y="-175.9" font-family="Times,serif" font-size="14.00"> &#160;&#160;&#160;withdraw() &lt;&lt;onlyOwner&gt;&gt;</text>
<text text-anchor="start" x="718.05" y="-159.1" font-family="Times,serif" font-size="14.00"> &#160;&#160;&#160;getBalance(): uint</text>
<text text-anchor="middle" x="864.28" y="-142.3" font-family="Times,serif" font-size="14.00">}ock.sol</text>
<polyline fill="none" stroke="black" points="710.05,-134.1 1018.52,-134.1 "/>
<text text-anchor="start" x="718.05" y="-117.5" font-family="Times,serif" font-size="14.00">Public:</text>
<text text-anchor="start" x="718.05" y="-100.7" font-family="Times,serif" font-size="14.00"> &#160;&#160;unlockTime: uint</text>
<polyline fill="none" stroke="black" points="710.05,-92.5 1018.52,-92.5 "/>
<text text-anchor="start" x="718.05" y="-75.9" font-family="Times,serif" font-size="14.00">Public:</text>
<text text-anchor="start" x="718.05" y="-59.1" font-family="Times,serif" font-size="14.00"> &#160;&#160;&#160;&lt;&lt;event&gt;&gt; Withdrawal(amount: uint, when: uint)</text>
<text text-anchor="start" x="718.05" y="-42.3" font-family="Times,serif" font-size="14.00"> &#160;&#160;&#160;constructor(_unlockTime: uint)</text>
<text text-anchor="start" x="718.05" y="-25.5" font-family="Times,serif" font-size="14.00"> &#160;&#160;&#160;withdraw() &lt;&lt;onlyOwner&gt;&gt;</text>
<text text-anchor="start" x="718.05" y="-8.7" font-family="Times,serif" font-size="14.00"> &#160;&#160;&#160;getBalance(): uint</text>
</g>
<!-- 4&#45;&gt;10 -->
<g id="edge5" class="edge">
<title>4&#45;&gt;10</title>
<path fill="none" stroke="black" d="M818.28,-310.21C814.15,-324.02 809.97,-338 805.86,-351.78"/>
<polygon fill="none" stroke="black" points="795.79,-348.81 797.25,-380.56 815.91,-354.82 795.79,-348.81"/>
</g>
<!-- 5 -->
<g id="node6" class="node">
<title>5</title>
<polygon fill="#f2f2f2" stroke="black" points="1394.96,-0.5 1394.96,-310.1 1735.61,-310.1 1735.61,-0.5 1394.96,-0.5"/>
<text text-anchor="middle" x="1565.28" y="-293.5" font-family="Times,serif" font-size="14.00">LockV3</text>
<text text-anchor="middle" x="1565.28" y="-276.7" font-family="Times,serif" font-size="14.00">contractsmain{LockV3</text>
<text text-anchor="start" x="1402.96" y="-259.9" font-family="Times,serif" font-size="14.00">contractsmainLock.sol| Public:</text>
<text text-anchor="start" x="1402.96" y="-243.1" font-family="Times,serif" font-size="14.00"> &#160;&#160;unlockTime: uint</text>
<text text-anchor="start" x="1402.96" y="-226.3" font-family="Times,serif" font-size="14.00">| Public:</text>
<text text-anchor="start" x="1402.96" y="-209.5" font-family="Times,serif" font-size="14.00"> &#160;&#160;&#160;&lt;&lt;event&gt;&gt; Withdrawal(amount: uint, when: uint)</text>
<text text-anchor="start" x="1402.96" y="-192.7" font-family="Times,serif" font-size="14.00"> &#160;&#160;&#160;constructor(_unlockTime: uint, token: address, id: uint)</text>
<text text-anchor="start" x="1402.96" y="-175.9" font-family="Times,serif" font-size="14.00"> &#160;&#160;&#160;withdraw() &lt;&lt;onlyOwner&gt;&gt;</text>
<text text-anchor="start" x="1402.96" y="-159.1" font-family="Times,serif" font-size="14.00"> &#160;&#160;&#160;getBalance(): uint</text>
<text text-anchor="middle" x="1565.28" y="-142.3" font-family="Times,serif" font-size="14.00">}ock.sol</text>
<polyline fill="none" stroke="black" points="1394.96,-134.1 1735.61,-134.1 "/>
<text text-anchor="start" x="1402.96" y="-117.5" font-family="Times,serif" font-size="14.00">Public:</text>
<text text-anchor="start" x="1402.96" y="-100.7" font-family="Times,serif" font-size="14.00"> &#160;&#160;unlockTime: uint</text>
<polyline fill="none" stroke="black" points="1394.96,-92.5 1735.61,-92.5 "/>
<text text-anchor="start" x="1402.96" y="-75.9" font-family="Times,serif" font-size="14.00">Public:</text>
<text text-anchor="start" x="1402.96" y="-59.1" font-family="Times,serif" font-size="14.00"> &#160;&#160;&#160;&lt;&lt;event&gt;&gt; Withdrawal(amount: uint, when: uint)</text>
<text text-anchor="start" x="1402.96" y="-42.3" font-family="Times,serif" font-size="14.00"> &#160;&#160;&#160;constructor(_unlockTime: uint, token: address, id: uint)</text>
<text text-anchor="start" x="1402.96" y="-25.5" font-family="Times,serif" font-size="14.00"> &#160;&#160;&#160;withdraw() &lt;&lt;onlyOwner&gt;&gt;</text>
<text text-anchor="start" x="1402.96" y="-8.7" font-family="Times,serif" font-size="14.00"> &#160;&#160;&#160;getBalance(): uint</text>
</g>
<!-- 5&#45;&gt;7 -->
<g id="edge6" class="edge">
<title>5&#45;&gt;7</title>
<path fill="none" stroke="black" d="M1476.41,-310.21C1469.58,-322.02 1462.7,-333.95 1455.87,-345.77"/>
<polygon fill="none" stroke="black" points="1446.51,-340.98 1440.6,-372.21 1464.7,-351.48 1446.51,-340.98"/>
</g>
<!-- 6 -->
<g id="node7" class="node">
<title>6</title>
<polygon fill="#f2f2f2" stroke="black" points="1269.06,-781.7 1269.06,-881.7 1463.51,-881.7 1463.51,-781.7 1269.06,-781.7"/>
<text text-anchor="middle" x="1366.28" y="-865.1" font-family="Times,serif" font-size="14.00">&lt;&lt;Interface&gt;&gt;</text>
<text text-anchor="middle" x="1366.28" y="-848.3" font-family="Times,serif" font-size="14.00">INFT</text>
<text text-anchor="middle" x="1366.28" y="-831.5" font-family="Times,serif" font-size="14.00">contractsmainabstractsAsset.sol</text>
<polyline fill="none" stroke="black" points="1269.06,-823.3 1463.51,-823.3 "/>
<text text-anchor="start" x="1277.06" y="-806.7" font-family="Times,serif" font-size="14.00">External:</text>
<text text-anchor="start" x="1277.06" y="-789.9" font-family="Times,serif" font-size="14.00"> &#160;&#160;&#160;&#160;ownerOf(uint): address</text>
</g>
<!-- 7&#45;&gt;6 -->
<g id="edge7" class="edge">
<title>7&#45;&gt;6</title>
<path fill="none" stroke="black" stroke-dasharray="5,2" d="M1366.28,-631.51C1366.28,-679.76 1366.28,-732.28 1366.28,-771.28"/>
<polygon fill="black" stroke="black" points="1362.78,-771.39 1366.28,-781.39 1369.78,-771.39 1362.78,-771.39"/>
</g>
<!-- 8 -->
<g id="node9" class="node">
<title>8</title>
<polygon fill="#f2f2f2" stroke="black" points="231.45,-1006.7 231.45,-1123.5 439.12,-1123.5 439.12,-1006.7 231.45,-1006.7"/>
<text text-anchor="middle" x="335.28" y="-1106.9" font-family="Times,serif" font-size="14.00">&lt;&lt;Abstract&gt;&gt;</text>
<text text-anchor="middle" x="335.28" y="-1090.1" font-family="Times,serif" font-size="14.00">Context</text>
<text text-anchor="middle" x="335.28" y="-1073.3" font-family="Times,serif" font-size="14.00">contractsmainabstractsContext.sol</text>
<polyline fill="none" stroke="black" points="231.45,-1065.1 439.12,-1065.1 "/>
<text text-anchor="start" x="239.45" y="-1048.5" font-family="Times,serif" font-size="14.00">Internal:</text>
<text text-anchor="start" x="239.45" y="-1031.7" font-family="Times,serif" font-size="14.00"> &#160;&#160;&#160;_msgSender(): address</text>
<text text-anchor="start" x="239.45" y="-1014.9" font-family="Times,serif" font-size="14.00"> &#160;&#160;&#160;_msgData(): bytes</text>
</g>
<!-- 9&#45;&gt;8 -->
<g id="edge8" class="edge">
<title>9&#45;&gt;8</title>
<path fill="none" stroke="black" d="M335.28,-969.98C335.28,-972.07 335.28,-974.15 335.28,-976.22"/>
<polygon fill="none" stroke="black" points="324.78,-976.49 335.28,-1006.49 345.78,-976.49 324.78,-976.49"/>
</g>
<!-- 10&#45;&gt;9 -->
<g id="edge9" class="edge">
<title>10&#45;&gt;9</title>
<path fill="none" stroke="black" d="M604.77,-623.33C582.87,-640.19 560.11,-657.7 537.51,-675.09"/>
<polygon fill="none" stroke="black" points="530.95,-666.89 513.58,-693.51 543.76,-683.53 530.95,-666.89"/>
</g>
</g>
</svg>
