<?xml version="1.0" encoding="UTF-8" standalone="no"?>
<!DOCTYPE svg PUBLIC "-//W3C//DTD SVG 1.1//EN"
 "http://www.w3.org/Graphics/SVG/1.1/DTD/svg11.dtd">
<!-- Generated by graphviz version 5.0.0 (20220707.1540)
 -->
<!-- Title: StorageDiagram Pages: 1 -->
<svg width="459pt" height="108pt"
 viewBox="0.00 0.00 459.27 108.20" xmlns="http://www.w3.org/2000/svg" xmlns:xlink="http://www.w3.org/1999/xlink">
<g id="graph0" class="graph" transform="scale(1 1) rotate(0) translate(4 104.2)">
<title>StorageDiagram</title>
<polygon fill="white" stroke="transparent" points="-4,4 -4,-104.2 455.27,-104.2 455.27,4 -4,4"/>
<!-- 1 -->
<g id="node1" class="node">
<title>1</title>
<polygon fill="#f2f2f2" stroke="black" points="0,-0.5 0,-99.7 451.27,-99.7 451.27,-0.5 0,-0.5"/>
<text text-anchor="middle" x="225.63" y="-83.1" font-family="Courier New" font-size="14.00">Lock &lt;&lt;Contract&gt;&gt;</text>
<polyline fill="none" stroke="black" points="0,-74.9 451.27,-74.9 "/>
<text text-anchor="middle" x="24.8" y="-58.3" font-family="Courier New" font-size="14.00">slot</text>
<polyline fill="none" stroke="black" points="0,-50.1 49.61,-50.1 "/>
<text text-anchor="middle" x="24.8" y="-33.5" font-family="Courier New" font-size="14.00">0</text>
<polyline fill="none" stroke="black" points="0,-25.3 49.61,-25.3 "/>
<text text-anchor="middle" x="24.8" y="-8.7" font-family="Courier New" font-size="14.00">1</text>
<polyline fill="none" stroke="black" points="49.61,-0.5 49.61,-74.9 "/>
<text text-anchor="middle" x="250.44" y="-58.3" font-family="Courier New" font-size="14.00">type: &lt;inherited contract&gt;.variable (bytes)</text>
<polyline fill="none" stroke="black" points="49.61,-50.1 451.27,-50.1 "/>
<text text-anchor="middle" x="124.82" y="-33.5" font-family="Courier New" font-size="14.00">unallocated (12)</text>
<polyline fill="none" stroke="black" points="200.03,-25.3 200.03,-50.1 "/>
<text text-anchor="middle" x="325.65" y="-33.5" font-family="Courier New" font-size="14.00">address: Ownable._owner (20)</text>
<polyline fill="none" stroke="black" points="49.61,-25.3 451.27,-25.3 "/>
<text text-anchor="middle" x="250.32" y="-8.7" font-family="Courier New" font-size="14.00">uint: unlockTime (32)</text>
</g>
</g>
</svg>
